<?xml version="1.0" encoding="UTF-8"?>
<svg id="Layer_1" xmlns="http://www.w3.org/2000/svg" version="1.1" viewBox="0 0 800 800">
  <!-- Generator: Adobe Illustrator 29.1.0, SVG Export Plug-In . SVG Version: 2.1.0 Build 142)  -->
  <defs>
    <style>
      .st0 {
        fill: #d8d8db;
        fill-rule: evenodd;
      }
    </style>
  </defs>
  <path class="st0" d="M200,66.7c-73.6,0-133.3,59.7-133.3,133.3v400c0,73.6,59.7,133.3,133.3,133.3h400c73.6,0,133.3-59.7,133.3-133.3V200c0-73.6-59.7-133.3-133.3-133.3H200ZM133.3,200c0-36.8,29.8-66.7,66.7-66.7h400c36.8,0,66.7,29.8,66.7,66.7v400c0,36.8-29.8,66.7-66.7,66.7H200c-36.8,0-66.7-29.8-66.7-66.7V200ZM300,366.7c0-18.4-14.9-33.3-33.3-33.3s-33.3,14.9-33.3,33.3v200c0,18.4,14.9,33.3,33.3,33.3s33.3-14.9,33.3-33.3v-200ZM316.7,250c0,27.6-22.4,50-50,50s-50-22.4-50-50,22.4-50,50-50,50,22.4,50,50ZM400,333.3c11.3,0,21.3,5.6,27.3,14.3,17.1-9.3,36.1-14.3,56-14.3,72,0,116.7,64.2,116.7,119v105.5h0v.5h0v.3h0v.3h0v.3h0v.3h0v.3h0v.3h0v.3h0v.3h0v.3h0v.2h0v.2h0v.2h0v.2h0v.2h0v.2h0v.2h0v.2h0v.2h0v.2h0v.2h0v.2h0v.2h0v.2h0v.2h0v.2h0v.2h0v.2h0v.2h0v.2h0v.2h0v.2h0v.2h0v.2h0v.2h0v.2h0v.2h0v.2h0v.2h0c0,18.5-14.9,33.5-33.3,33.5s-33.3-14.9-33.3-33.3h0v-.2h0v-.2h0v-.2h0v-.2h0v-.2h0v-.2h0v-.2h0v-.2h0v-.2h0v-.2h0v-.2h0v-.2h0v-.2h0v-.2h0v-.2h0v-.2h0v-.2h0v-.2h0v-.2h0v-.2h0v-.2h0v-.2h0v-.2h0v-.2h0v-.2h0v-.2h0v-.2h0v-.2h0v-.2h0v-.3h0v-.3h0v-.3h0v-.3h0v-.3h0v-.3h0v-.3h0v-.3h0v-.3h0v-.3h0v-105.8c0-25.6-22-52.4-50-52.4s-36.8,9.5-50,32.1h0v127.6h0v.3h0v.3h0v.3h0v.3h0v.3h0v.3h0v.3h0v.3h0v.3h0v.2h0v.2h0v.2h0v.2h0v.2h0v.2h0v.2h0v.2h0v.2h0v.2h0v.2h0v.2h0v.2h0v.2h0v.2h0v.2h0v.2h0v.2h0v.2h0v.2h0v.2h0v.2h0v.2h0c0,18.4-14.9,33.4-33.3,33.4s-33.3-14.9-33.3-33.3h0v-.2h0v-.2h0v-.2h0v-.2h0v-.2h0v-.2h0v-.2h0v-.2h0v-.2h0v-.2h0v-.2h0v-.2h0v-.2h0v-.2h0v-.2h0v-.2h0v-.2h0v-.2h0v-.2h0v-.2h0v-.2h0v-.2h0v-.2h0v-.3h0v-.3h0v-.3h0v-.3h0v-.3h0v-.3h0v-.3h0v-.5h0v-136h0v-.3h0v-.3h0v-.3h0v-.3h0v-.3h0v-.3h0v-.3h0v-.3h0v-.3h0v-.3h0v-.3h0v-.3h0v-.3h0v-.3h0v-.3h0v-.3h0v-.3h0v-.3h0v-.3h0v-.3h0v-.3h0v-.3h0v-.3h0v-.3h0v-.3h0v-.3h0v-.3h0v-.3h0v-.3h0v-.3h0v-.3h0v-.3h0v-.3h0v-.3h0v-.3h0v-.3h0v-.3h0v-.3h0v-.3h0v-.3h0v-.3h0v-.3h0v-.3h0v-.3h0v-.3h0v-.4h0v-.3h0v-.3h0v-.3h0v-.4h0v-.4h0v-.3h0v-.4h0v-.5h0v-.3h0v-.5h0v-.3h0v-.5h0v-.3h0v-.5h0v-.3h0v-.3h0v-.5h0v-.3h0v-.5h0v-.3h0v-.3h0v-.5h0v-.3h0v-.3h0v-.6h0v-.3h0v-.3h0v-.3h0v-.6h0v-.4h0v-.3h0v-.3h0v-.3h0v-.3h0v-.3h0v-.3h0v-.3h0v-.3h0v-.3h0v-.3h0v-.3h0v-.3h0v-.3h0v-.3h0v-.3h0v-.3h0v-.3h0v-.3h0v-.3h0v-.3h0v-.3h0v-.3h0v-.3h0v-.3h0v-.3h0v-.3h0v-.3h0v-.3h0v-.3h0v-.3h0v-.3h0v-.3h0v-.3h0v-.3h0v-.3h0v-.3h0v-.3h0v-.3h0v-.3h0v-.3h0v-.3h0v-.3h0v-.3h0v-.3h0v-.3h0v-.3h0v-.3h0v-.3h0v-.3h0v-.3h0v-.3h0v-.3h0v-.3h0v-.3h0v-.3h0v-.3h0v-.3h0v-.3h0v-.3h0v-.3h0v-.2h0v-.2h0v-.2h0v-.2h0v-.2h0v-.2h0v-.2h0v-.2h0v-.2h0v-.2h0v-.2h0v-.2h0v-.2h0v-.2h0v-.2h0v-.2h0v-.2h0v-.2h0v-.2h0v-.2h0v-.2h0v-.2h0v-.2h0v-.2h0v-.2h0v-.2h0v-.2h0v-.2h0v-.2h0v-.2h0v-.2h0v-.2h0v-.2h0v-.2h0v-.2h0v-.2h0v-.2h0v-.2h0v-.2h0v-.2h0v-.2h0v-.2h0v-.2h0v-.2h0v-.2h0v-.2h0v-.2h0v-.2h0v-.2h0v-.2h0v-.2h0v-.2h0v-.2h0v-.2h0v-.2h0v-.2h0v-.2h0v-.2h0v-.2h0v-.2h0v-.2h0v-.2h0v-.2h0v-.2h0v-.2h0v-.2h0v-.2h0v-.2h0v-.2h0v-.2h0v-.2h0v-.2h0v-.2h0v-.2h0v-.2h0v-.2h0v-.2h0v-.2h0v-.2h0v-.2h0v-.2h0c0-18.5,14.9-33.4,33.3-33.4Z"/>
</svg>