<?xml version="1.0" standalone="no"?><svg xmlns="http://www.w3.org/2000/svg" viewBox="0 0 1440 320"><path fill="00000" fill-opacity="1" d="M0,64L34.3,74.7C68.6,85,137,107,206,133.3C274.3,160,343,192,411,186.7C480,181,549,139,617,106.7C685.7,75,754,53,823,58.7C891.4,64,960,96,1029,90.7C1097.1,85,1166,43,1234,58.7C1302.9,75,1371,149,1406,186.7L1440,224L1440,320L1405.7,320C1371.4,320,1303,320,1234,320C1165.7,320,1097,320,1029,320C960,320,891,320,823,320C754.3,320,686,320,617,320C548.6,320,480,320,411,320C342.9,320,274,320,206,320C137.1,320,69,320,34,320L0,320Z"></path></svg>